# xmcd
#
# Track frame offsets:
#	188
#	15258
#	28105
#	44288
#	61335
#	75758
#	93773
#	106315
#
# Disc length: 1594 seconds
# Revision: 0
# Processed by: cddbd v1.5.2PL0 Copyright (c) Steve Scherf et al.
# Submitted via: dBpowerAMP V12.0
#
DISCID=4a063808
DTITLE=William Bell - Phases of Reality
DYEAR=1900
DGENRE=
TTITLE0=Save Us
TTITLE1=True Love Don't Come Easy
TTITLE2=Fifty Dollar Habit
TTITLE3=What I Don't Know Won't Hurt Me
TTITLE4=Phases of Reality
TTITLE5=If You Really Love Him
TTITLE6=Lonely For Your Love
TTITLE7=The Man in the Street
EXTD=
EXTT0=
EXTT1=
EXTT2=
EXTT3=
EXTT4=
EXTT5=
EXTT6=
EXTT7=
PLAYORDER=
